<?xml version="1.0" standalone="no"?><!DOCTYPE svg PUBLIC "-//W3C//DTD SVG 1.1//EN" "http://www.w3.org/Graphics/SVG/1.1/DTD/svg11.dtd"><svg t="1573438711992" class="icon" viewBox="0 0 1024 1024" version="1.1" xmlns="http://www.w3.org/2000/svg" p-id="2943" xmlns:xlink="http://www.w3.org/1999/xlink" width="200" height="200"><defs><style type="text/css"></style></defs><path d="M703.488 416.256c-17.92 0-31.744 13.824-31.744 31.744v298.496c0 17.408 14.336 31.744 31.744 31.744 17.92 0 31.744-13.824 31.744-31.744v-298.496c0-17.92-13.824-31.744-31.744-31.744z" p-id="2944" fill="#ffffff"></path><path d="M921.6 295.424c-17.92-18.432-42.496-28.672-68.608-28.672h-118.272v-110.592c0-34.304-31.744-59.904-74.24-59.904h-299.008c-41.472 0-74.24 26.112-74.24 59.904v110.592h-116.736c-52.736 0-95.744 43.008-95.744 95.744v469.504c0 52.736 43.008 95.744 95.744 95.744h682.496c52.736 0 95.744-43.008 95.744-95.744v-469.504c0.512-25.088-9.216-49.152-27.136-67.072z m-570.368-28.672v-105.472c2.048-1.024 6.144-2.048 10.752-2.048h299.008c5.12 0 8.704 1.024 10.752 1.536v105.984h-320.512z m533.504 95.744v469.504c0 17.92-14.336 32.256-32.256 32.256h-682.496c-17.92 0-32.256-14.336-32.256-32.256v-469.504c0-17.92 14.336-32.256 32.256-32.256h682.496c17.92 0 32.256 14.336 32.256 32.256z" p-id="2945" fill="#ffffff"></path><path d="M319.488 416.256c-17.92 0-31.744 13.824-31.744 31.744v298.496c0 17.408 14.336 31.744 31.744 31.744 17.92 0 31.744-13.824 31.744-31.744v-298.496c0-17.92-13.824-31.744-31.744-31.744z" p-id="2946" fill="#ffffff"></path></svg>