<?xml version="1.0" standalone="no"?><!DOCTYPE svg PUBLIC "-//W3C//DTD SVG 1.1//EN" "http://www.w3.org/Graphics/SVG/1.1/DTD/svg11.dtd"><svg t="1535100656604" class="icon" style="" viewBox="0 0 1024 1024" version="1.1" xmlns="http://www.w3.org/2000/svg" p-id="1220" xmlns:xlink="http://www.w3.org/1999/xlink" width="64" height="64"><defs><style type="text/css"></style></defs><path d="M948.16 124.16c-296.96 0-421.952-113.664-422.4-114.624-2.24-5.696-7.424-9.408-13.568-9.536l-0.32 0c-5.824 0-11.264 3.712-13.504 9.216-0.512 1.216-126.528 114.944-422.528 114.944-8.192 0-14.848 6.72-14.848 14.912l74.816 509.248c31.808 213.184 355.2 367.744 370.24 374.464l5.888 1.216 5.952-1.28c15.168-6.656 345.152-170.56 370.304-374.464l74.752-509.248c0.064-8.128-6.528-14.848-14.784-14.848zM444.48 767.168c-36.544-21.12-49.088-67.84-27.968-104.384l132.352 76.416c-21.12 36.544-67.84 49.088-104.384 27.968zM700.096 710.144l-27.776 48.064-462.784-267.136 27.776-48.064c133.888 28.736 190.656-212.992 334.464-212.608 19.84 0.064 38.208-10.496 48.128-27.712 0 0 0-0.064 0.064-0.064 15.488-26.816 49.728-35.968 76.544-20.48s35.968 49.728 20.48 76.544c0 0 0 0.064-0.064 0.064-9.92 17.152-9.92 38.4 0.064 55.552 72.192 124.288-108.736 294.336-16.896 395.84zM679.808 210.944c10.88 6.272 14.592 20.16 8.32 31.04s-20.224 14.592-31.04 8.32c-10.88-6.272-14.592-20.16-8.32-31.04s20.224-14.592 31.04-8.32l0 0z" p-id="1221"></path></svg>