<?xml version="1.0" standalone="no"?><!DOCTYPE svg PUBLIC "-//W3C//DTD SVG 1.1//EN" "http://www.w3.org/Graphics/SVG/1.1/DTD/svg11.dtd"><svg t="1533714631296" class="icon" style="" viewBox="0 0 1024 1024" version="1.1" xmlns="http://www.w3.org/2000/svg" p-id="1210" xmlns:xlink="http://www.w3.org/1999/xlink" width="64" height="64"><defs><style type="text/css"></style></defs><path d="M507.52512 95.56992c-4.18816 1.46432-9.20576 5.43744-11.9296 9.6256-4.608 6.90176-4.8128 8.58112-4.8128 56.07424v48.95744L329.25696 379.0848c-88.71936 92.89728-170.32192 178.05312-180.992 189.14304-19.2512 20.08064-19.456 20.29568-19.456 30.76096 0 12.97408 5.85728 20.50048 17.78688 23.22432 4.8128 1.25952 81.18272 2.08896 176.384 2.08896h167.80288v52.30592H259.36896c-214.25152 0-231.8336 0.21504-237.48608 3.55328-14.01856 8.36608-15.68768 27.83232-3.34848 38.7072 3.76832 3.34848 61.30688 51.46624 128.0512 106.91584 89.344 74.28096 123.2384 101.4784 128.47104 102.52288 10.88512 2.304 468.89984 1.66912 476.64128-0.41984 3.97312-1.25952 56.69888-43.7248 132.02432-106.71104 133.90848-111.52384 132.44416-110.26432 129.09568-125.7472-0.62464-3.34848-4.608-9.00096-8.58112-12.55424l-7.3216-6.27712H540.99968v-52.30592h183.08096c159.4368 0 184.12544-0.41984 189.35808-3.13344 7.95648-4.18816 10.46528-9.00096 10.46528-20.29568v-9.00096L732.45696 400.42496 540.99968 208.97792v-40.79616h61.09184l7.1168-7.1168c6.07232-6.06208 7.1168-8.58112 7.1168-16.9472s-1.04448-10.88512-7.1168-16.9472l-7.1168-7.1168h-30.54592c-27.61728 0-30.54592-0.41984-30.54592-3.76832 0-4.8128-7.3216-16.52736-11.9296-18.83136-7.10656-3.56352-14.22336-4.18816-21.54496-1.88416z m329.96352 481.87392c-1.25952 1.24928-624.98816-2.08896-624.56832-3.34848 0.41984-0.83968 68.83328-72.81664 152.1152-160.06144l151.49056-158.39232 160.69632 160.69632C765.72672 504.832 837.70368 577.2288 837.48864 577.44384zM277.78048 743.36256c2.72384 1.04448 23.01952 19.456 44.98432 40.79616 43.30496 42.26048 46.86848 47.28832 42.47552 60.88704-5.0176 15.27808-22.80448 22.38464-37.24288 14.85824-3.13344-1.66912-23.22432-20.71552-44.77952-42.47552l-39.33184-39.54688v-9.8304c0-19.67104 16.32256-31.3856 33.8944-24.68864z" p-id="1211"></path><path d="M517.57056 316.93824c-3.14368 1.25952-36.4032 36.4032-78.87872 83.48672-99.1744 109.84448-90.18368 98.75456-90.18368 110.47936 0 11.29472 3.76832 17.78688 12.55424 22.38464 8.58112 4.39296 17.16224 3.97312 24.68864-1.66912 3.76832-2.5088 41.85088-43.93984 84.95104-91.8528 84.95104-94.57664 84.95104-94.78144 78.04928-109.63968-5.65248-11.7248-19.46624-17.58208-31.1808-13.18912z" p-id="1212"></path></svg>