<?xml version="1.0" standalone="no"?><!DOCTYPE svg PUBLIC "-//W3C//DTD SVG 1.1//EN" "http://www.w3.org/Graphics/SVG/1.1/DTD/svg11.dtd"><svg t="1573289401535" class="icon" viewBox="0 0 1024 1024" version="1.1" xmlns="http://www.w3.org/2000/svg" p-id="17459" xmlns:xlink="http://www.w3.org/1999/xlink" width="200" height="200"><defs><style type="text/css"></style></defs><path d="M981.216 419.52L601.952 124.352c-55.392-43.968-124.416-44.064-179.584-0.16L42.848 419.52c-12.32 9.536-14.432 29.024-4.832 41.184 9.664 12.224 27.52 16.064 39.648 6.688l73.696-57.344v345.28c0 114.048 48.32 177.376 163.52 177.376h397.92c115.232 0 159.616-65.696 159.616-179.808v-343.04l73.952 57.568c5.12 4 11.296 5.952 17.44 5.952 8.32 0 16.672-4.64 22.208-11.68 9.568-12.192 7.456-32.608-4.8-42.176zM632 873.152h-240.576v-240.672h240.576v240.672z m180.512-121.056c0 74.88-28.704 121.056-99.712 121.056h-20.672v-243.296c-0.064-2.528-2.464-57.12-56.832-57.12H388.16c2.144 0-56.832-1.216-56.832 56.832v243.552h-16.48c-63.2 0-103.968-48.096-103.968-120.544l-0.032-388.832 246.592-191.904c34.656-27.488 74.496-27.52 109.472 0.16l245.568 191.2 0.032 388.896z m-120.416-122.496v0z m0 0" fill="#ffffff" p-id="17460"></path></svg>