<?xml version="1.0" standalone="no"?><!DOCTYPE svg PUBLIC "-//W3C//DTD SVG 1.1//EN" "http://www.w3.org/Graphics/SVG/1.1/DTD/svg11.dtd"><svg t="1573289528551" class="icon" viewBox="0 0 1024 1024" version="1.1" xmlns="http://www.w3.org/2000/svg" p-id="19497" xmlns:xlink="http://www.w3.org/1999/xlink" width="200" height="200"><defs><style type="text/css"></style></defs><path d="M722.489 472.178c28.444 0 56.889 5.689 85.333 17.066v-307.2c0-34.133-22.755-56.888-56.889-56.888H637.156V204.8c0 28.444-22.756 51.2-51.2 51.2h-39.823c-28.444-5.689-51.2-28.444-51.2-51.2v-79.644H381.156V204.8c0 28.444-22.756 51.2-51.2 51.2h-39.823c-28.444-5.689-51.2-28.444-51.2-51.2v-79.644H125.156c-34.134 0-56.89 22.755-56.89 56.888v682.667c0 34.133 22.756 56.889 56.89 56.889H506.31c-39.822-45.511-62.578-108.089-62.578-170.667 0-153.6 125.156-278.755 278.756-278.755z m-540.445-96.711c0-5.69 5.69-11.378 11.378-11.378h489.245c5.689 0 11.377 5.689 11.377 11.378V409.6c0 5.689-5.688 11.378-11.377 11.378H193.422c-5.689 0-11.378-5.69-11.378-11.378v-34.133z m0 170.666c0-5.689 5.69-11.377 11.378-11.377h204.8c5.69 0 11.378 5.688 11.378 11.377v39.823c0 5.688-5.689 11.377-11.378 11.377h-204.8c-5.689 0-11.378-5.689-11.378-11.377v-39.823z m170.667 204.8c0 5.69-5.689 5.69-5.689 5.69H187.733c-5.689 0-5.689-5.69-5.689-5.69v-39.822c0-5.689 5.69-5.689 5.69-5.689h153.6c5.688 0 5.688 5.69 5.688 5.69v39.821z" p-id="19498" fill="#ffffff"></path><path d="M329.956 39.822h-39.823c-5.689 0-11.377 0-11.377 5.69V204.8c0 5.689 5.688 5.689 5.688 5.689h39.823c5.689 0 5.689-5.689 5.689-5.689V45.511c5.688-5.689 5.688-5.689 0-5.689z m256 0h-39.823c-5.689 0-5.689 5.69-5.689 5.69V204.8c0 5.689 5.69 5.689 5.69 5.689h39.822c5.688 0 5.688-5.689 5.688-5.689V45.511c0-5.689 0-5.689-5.688-5.689z m221.866 494.934c-28.444-11.378-56.889-17.067-85.333-17.067-130.845 0-233.245 108.089-233.245 233.244 0 68.267 28.445 125.156 73.956 170.667 39.822 39.822 96.711 62.578 159.289 62.578 130.844 0 233.244-108.09 233.244-233.245 0-102.4-62.577-182.044-147.91-216.177z m28.445 244.622c0 5.689-5.69 11.378-11.378 11.378H699.733c-5.689 0-11.377-5.69-11.377-11.378V614.4c0-5.689 5.688-17.067 17.066-17.067H716.8c5.689 0 17.067 5.69 17.067 17.067v136.533h102.4c5.689 0 11.377 5.69 11.377 11.378v17.067z" p-id="19499" fill="#ffffff"></path></svg>