<?xml version="1.0" standalone="no"?><!DOCTYPE svg PUBLIC "-//W3C//DTD SVG 1.1//EN" "http://www.w3.org/Graphics/SVG/1.1/DTD/svg11.dtd"><svg t="1533004530270" class="icon" style="" viewBox="0 0 1024 1024" version="1.1" xmlns="http://www.w3.org/2000/svg" p-id="1072" xmlns:xlink="http://www.w3.org/1999/xlink" width="64" height="64"><defs><style type="text/css"></style></defs><path d="M832 1024H192c-106.048 0-192-86.016-192-192V192a192 192 0 0 1 192-192h35.712a380.949333 380.949333 0 0 0-82.88 149.632C134.656 160.96 128 175.616 128 192v640c0 35.392 28.608 64 64 64h640c35.392 0 64-28.608 64-64V192c0-16.384-6.656-31.04-16.832-42.368A381.610667 381.610667 0 0 0 796.352 0H832a192 192 0 0 1 192 192v640c0 105.984-85.952 192-192 192zM256 256c0-141.376 114.624-256 256-256s256 114.624 256 256-256 512-256 512-256-370.624-256-512z m384 0c0-70.656-57.344-128-128-128s-128 57.344-128 128 57.344 128 128 128 128-57.344 128-128z" fill="" p-id="1073"></path></svg>