<?xml version="1.0" standalone="no"?><!DOCTYPE svg PUBLIC "-//W3C//DTD SVG 1.1//EN" "http://www.w3.org/Graphics/SVG/1.1/DTD/svg11.dtd"><svg t="1573289209653" class="icon" viewBox="0 0 1024 1024" version="1.1" xmlns="http://www.w3.org/2000/svg" p-id="15805" xmlns:xlink="http://www.w3.org/1999/xlink" width="200" height="200"><defs><style type="text/css"></style></defs><path d="M271.980234 768.21225h255.787751v-51.15795H271.980234v51.15795z m0-179.051825H732.399785v-51.15795H271.980234v51.15795zM578.925935 0.848999H425.452085v51.15795h153.47385V0.848999zM271.980234 410.1086H732.399785v-51.156951H271.980234v51.157951zM885.869635 0.849999H732.398785s-76.735925-4.608995-76.735925 51.15795c0 35.123966-21.540979 47.388954-41.797959 51.15695H398.316111c-22.079978-2.739997-49.599952-13.671987-49.599952-51.15695 0-62.768939-76.735925-51.15995-76.735925-51.15995l-0.002 0.002h-153.46985c-28.255972 0-51.15895 22.901978-51.15895 51.15795v920.836101c0 28.251972 22.902978 51.15595 51.15795 51.15595H706.81981l230.209775-230.209775V52.007949c0-28.255972-22.903978-51.15795-51.15795-51.15795zM681.239835 972.84105V793.790225c0-14.126986 11.450989-25.577975 25.577975-25.577975H885.869635l-204.6298 204.6298z m204.6298-255.78675H681.239835c-28.253972 0-51.15795 22.901978-51.15795 51.15795v204.6298H144.085359c-14.125986 0-25.577975-11.451989-25.577975-25.578975V77.583924c0-14.125986 11.451989-25.576975 25.577975-25.576975h122.67988c16.168984 5.518995 30.46997 19.395981 30.79397 51.15695 0.567999 55.912945 76.735925 51.15795 76.735925 51.15795h255.786751s76.735925 0.227 76.735925-58.569943c0-29.144972 19.128981-40.089961 38.285962-43.744957H860.28966c14.126986 0 25.577975 11.449989 25.577975 25.577975v639.469376z" fill="#ffffff" p-id="15806"></path></svg>