<?xml version="1.0" standalone="no"?><!DOCTYPE svg PUBLIC "-//W3C//DTD SVG 1.1//EN" "http://www.w3.org/Graphics/SVG/1.1/DTD/svg11.dtd"><svg t="1573289003295" class="icon" viewBox="0 0 1024 1024" version="1.1" xmlns="http://www.w3.org/2000/svg" p-id="11086" xmlns:xlink="http://www.w3.org/1999/xlink" width="200" height="200"><defs><style type="text/css"></style></defs><path d="M501.391462 481.745952M511.782539 140.776234c49.663085 0 96.465911 9.413394 140.401316 28.245298 43.936428 18.826787 82.275143 44.61308 115.022283 77.358879s58.53449 71.088058 77.367165 115.022687c18.827559 43.933605 28.242362 90.730421 28.242362 140.396587 0 50.209542-9.413779 97.146551-28.242362 140.804886-18.831652 43.662429-44.620025 81.864496-77.367165 114.610294s-71.086878 58.537208-115.022283 77.363995c-43.936428 18.826787-90.738232 28.246321-140.401316 28.246321-50.212623 0-97.286636-9.41851-141.222042-28.246321-43.936428-18.825764-82.280259-44.618197-115.0274-77.363995s-58.53449-70.947865-77.362048-114.610294c-18.832676-43.658336-28.246455-90.594321-28.246455-140.804886 0-49.666166 9.413779-96.462982 28.246455-140.396587 18.827559-43.934628 44.614908-82.276888 77.362048-115.022687s71.090971-58.532091 115.0274-77.358879C414.495902 150.189627 461.569916 140.776234 511.782539 140.776234L511.782539 140.776234zM718.086451 551.73805c14.190768 0 26.199759-5.050016 36.020831-15.146978 9.826189-10.095939 14.73826-22.240537 14.73826-36.431747s-4.913094-26.193569-14.73826-36.019355c-9.822095-9.825786-21.830062-14.733563-36.020831-14.733563L564.175916 449.406406 564.175916 295.499108c0-14.190187-5.0492-26.333762-15.146576-36.426631-10.097376-10.097986-22.241448-15.145955-36.43324-15.145955-14.186675 0-26.195665 5.047969-36.020831 15.145955-9.821072 10.092869-14.734166 22.236444-14.734166 36.426631l0 153.908322L307.926475 449.40743c-14.186675 0-26.194642 4.907777-36.020831 14.733563-9.821072 9.825786-14.734166 21.829168-14.734166 36.019355s4.913094 26.334785 14.734166 36.431747c9.826189 10.096962 21.834156 15.146978 36.020831 15.146978l153.914628 0 0 153.083537c0 14.190187 4.913094 26.333762 14.734166 36.431747 9.826189 10.096962 21.834156 15.146978 36.020831 15.146978 14.190768 0 26.334841-5.050016 36.43324-15.146978s15.146576-22.240537 15.146576-36.431747L564.175916 551.73805 718.086451 551.73805 718.086451 551.73805zM718.086451 551.73805" p-id="11087"></path></svg>