<?xml version="1.0" standalone="no"?><!DOCTYPE svg PUBLIC "-//W3C//DTD SVG 1.1//EN" "http://www.w3.org/Graphics/SVG/1.1/DTD/svg11.dtd"><svg t="1573289317540" class="icon" viewBox="0 0 1024 1024" version="1.1" xmlns="http://www.w3.org/2000/svg" p-id="16660" xmlns:xlink="http://www.w3.org/1999/xlink" width="200" height="200"><defs><style type="text/css"></style></defs><path d="M63.147 592.8899l75.646 175.1798h680.8115200000001l139.348-175.1798H63.147008zM803.6792 708.3489c-15.3917 0-27.8692-12.4774-27.8692-27.8692 0-15.3917 12.4774-27.8692 27.8692-27.8692 15.3917 0 27.8692 12.4774 27.8692 27.8692C831.5484 695.8725 819.071 708.3489 803.6792 708.3489z" p-id="16661" fill="#ffffff"></path><path d="M698.9609 230.5864l76.8492 0 0 230.9192-76.8492 0 0-230.9192Z" p-id="16662" fill="#ffffff"></path><path d="M567.5756 230.5864l76.8492 0 0 230.9192-76.8492 0 0-230.9192Z" p-id="16663" fill="#ffffff"></path><path d="M511.0497 481.4121v-47.776768H158.69952v130.014208h352.350208 320.498688v-82.23744H511.0497280000001zM232.1828 525.2065c-15.3917 0-27.8692-12.4774-27.8692-27.8692 0-15.3917 12.4774-27.8692 27.8692-27.8692 15.3917 0 27.8692 12.4774 27.8692 27.8692C260.052 512.7301 247.5745 525.2065 232.1828 525.2065zM335.6979 526.5121c-15.3917 0-27.8692-12.4774-27.8692-27.8702 0-15.3917 12.4774-27.8692 27.8692-27.8692 15.3917 0 27.8692 12.4774 27.8692 27.8692C363.5671 514.0347 351.0897 526.5121 335.6979 526.5121zM433.6988 526.9412c-15.3917 0-27.8692-12.4774-27.8692-27.8702 0-15.3917 12.4774-27.8692 27.8692-27.8692 15.3917 0 27.8692 12.4774 27.8692 27.8692C461.568 514.4637 449.0906 526.9412 433.6988 526.9412z" p-id="16664" fill="#ffffff"></path></svg>