<?xml version="1.0" standalone="no"?><!DOCTYPE svg PUBLIC "-//W3C//DTD SVG 1.1//EN" "http://www.w3.org/Graphics/SVG/1.1/DTD/svg11.dtd"><svg t="1533111111089" class="icon" style="" viewBox="0 0 1024 1024" version="1.1" xmlns="http://www.w3.org/2000/svg" p-id="1315" xmlns:xlink="http://www.w3.org/1999/xlink" width="64" height="64"><defs><style type="text/css"></style></defs><path d="M874.7 382.5H805L525.8 103.2c-7.6-7.6-19.9-7.6-27.5 0L219 382.5h-69.7c-28.6 0-51.8 23.2-51.8 51.8v440.4c0 28.6 23.2 51.8 51.8 51.8h725.4c28.6 0 51.8-23.2 51.8-51.8V434.3c0-28.6-23.2-51.8-51.8-51.8zM512 144.4l238.1 238.1H274l238-238.1zM260 822.9c-21.5 0-38.9-17.4-38.9-38.9s17.4-38.9 38.9-38.9 38.9 17.4 38.9 38.9-17.4 38.9-38.9 38.9z m0-129.6c-21.5 0-38.9-17.4-38.9-38.9s17.4-38.9 38.9-38.9 38.9 17.4 38.9 38.9-17.4 38.9-38.9 38.9z m0-129.5c-21.5 0-38.9-17.4-38.9-38.9S238.5 486 260 486s38.9 17.4 38.9 38.9-17.4 38.9-38.9 38.9z m542.9 239.6H388.4c-10.7 0-19.4-8.7-19.4-19.4s8.7-19.4 19.4-19.4h414.5c10.7 0 19.4 8.7 19.4 19.4s-8.7 19.4-19.4 19.4z m0-129.5H388.4c-10.7 0-19.4-8.7-19.4-19.4s8.7-19.4 19.4-19.4h414.5c10.7 0 19.4 8.7 19.4 19.4s-8.7 19.4-19.4 19.4z m0-129.5H388.4c-10.7 0-19.4-8.7-19.4-19.4s8.7-19.4 19.4-19.4h414.5c10.7 0 19.4 8.7 19.4 19.4s-8.7 19.4-19.4 19.4z" p-id="1316"></path></svg>