<?xml version="1.0" standalone="no"?><!DOCTYPE svg PUBLIC "-//W3C//DTD SVG 1.1//EN" "http://www.w3.org/Graphics/SVG/1.1/DTD/svg11.dtd"><svg t="1573438857953" class="icon" viewBox="0 0 1024 1024" version="1.1" xmlns="http://www.w3.org/2000/svg" p-id="5808" xmlns:xlink="http://www.w3.org/1999/xlink" width="200" height="200"><defs><style type="text/css"></style></defs><path d="M846.014 47.419H177.986c-71.812 0-130.567 58.755-130.567 130.567v668.03c0 71.81 58.755 130.566 130.567 130.566h668.03c71.81 0 130.566-58.755 130.566-130.567v-668.03c-0.001-71.81-58.756-130.566-130.568-130.566zM435.255 792.665H315.163v-53.524l120.092-8.433v61.957z m0-100.189l-120.092 11.245v-50.6l120.092-19.567v58.922z m0-100.415l-120.092 23.277v-51.726l120.092-30.585v59.034z m0-98.84l-120.092 32.047v-53.974l120.092-39.356v61.283z m133.249 298.77h-98.615V379.089l-191.046 60.946v353.867H245.22l0.113-371.859 255.365-89.169 67.805 39.918v419.199z m210.274-0.113H626.302V269.454L397.25 344.23v-22.828l252.216-91.305 75.789 63.982v464.29h53.524v33.508z" p-id="5809" fill="#ffffff"></path></svg>