<?xml version="1.0" standalone="no"?><!DOCTYPE svg PUBLIC "-//W3C//DTD SVG 1.1//EN" "http://www.w3.org/Graphics/SVG/1.1/DTD/svg11.dtd"><svg t="1573438941071" class="icon" viewBox="0 0 1024 1024" version="1.1" xmlns="http://www.w3.org/2000/svg" p-id="6581" xmlns:xlink="http://www.w3.org/1999/xlink" width="200" height="200"><defs><style type="text/css"></style></defs><path d="M569.6 115.2V0h-115.2v115.2H0V230.4h57.6v576h358.4L192 979.2 230.4 1024l275.2-224L780.8 1024l38.4-44.8-217.6-179.2h364.8V224H1024V115.2h-454.4zM908.8 742.4h-793.6V230.4h793.6v512z" fill="#ffffff" p-id="6582"></path><path d="M281.6 627.2V454.4h172.8C454.4 371.2 384 307.2 300.8 307.2s-153.6 70.4-153.6 153.6c6.4 83.2 51.2 166.4 134.4 166.4z" fill="#ffffff" p-id="6583"></path><path d="M339.2 684.8c89.6 0 172.8-89.6 172.8-172.8H339.2v172.8zM793.6 339.2h-166.4V396.8h172.8V339.2zM793.6 454.4h-166.4V512h172.8V454.4zM793.6 569.6h-166.4v57.6h172.8v-57.6z" fill="#ffffff" p-id="6584"></path></svg>