<?xml version="1.0" standalone="no"?><!DOCTYPE svg PUBLIC "-//W3C//DTD SVG 1.1//EN" "http://www.w3.org/Graphics/SVG/1.1/DTD/svg11.dtd"><svg t="1573438626530" class="icon" viewBox="0 0 1024 1024" version="1.1" xmlns="http://www.w3.org/2000/svg" p-id="2046" xmlns:xlink="http://www.w3.org/1999/xlink" width="200" height="200"><defs><style type="text/css"></style></defs><path d="M829.184 337.216c0 0.32 0 0.576-0.064 0.896l0 64.32c0 3.52-2.88 6.4-6.4 6.4L201.216 408.832c-3.52 0-6.4-2.88-6.4-6.4L194.816 337.216c0-3.52 2.88-6.4 6.4-6.4l621.632 0C826.304 330.816 829.184 333.696 829.184 337.216zM822.784 554.432 201.216 554.432c-3.52 0-6.4 2.88-6.4 6.4l0 65.216c0 3.52 2.88 6.4 6.4 6.4l621.568 0c3.52 0 6.4-2.88 6.4-6.4L829.184 561.728c0.064-0.32 0.064-0.576 0.064-0.896C829.184 557.312 826.304 554.432 822.784 554.432zM822.784 442.624 201.216 442.624c-3.52 0-6.4 2.88-6.4 6.4l0 65.216c0 3.52 2.88 6.4 6.4 6.4l621.568 0c3.52 0 6.4-2.88 6.4-6.4L829.184 449.92c0.064-0.256 0.064-0.576 0.064-0.896C829.184 445.504 826.304 442.624 822.784 442.624zM638.464 91.712 572.224 91.712l0 76.16 66.24 0L638.464 91.712zM695.552 217.088c18.304 0 33.152-14.784 33.152-33.216L728.704 91.392c0-18.304-14.784-33.088-33.152-33.088-18.368 0-33.152 14.784-33.152 33.088l0 92.544C662.336 202.24 677.248 217.088 695.552 217.088zM515.136 217.088c18.304 0 33.152-14.784 33.152-33.216L548.288 91.392c0-18.304-14.784-33.088-33.152-33.088-18.368 0-33.152 14.784-33.152 33.088l0 92.544C481.92 202.24 496.832 217.088 515.136 217.088zM891.584 91.712 752.64 91.712l0 76.16 136.896 0 0 721.536L323.648 889.408l0-144.832L134.464 744.576 134.464 167.936l143.168 0 0-76.16L132.416 91.776c-40.96 0-74.176 33.216-74.176 74.176 0 0 0 589.696 0 590.016 0 16.768 7.744 31.808 19.84 41.6l193.856 156.864c10.304 8.064 22.912 11.84 35.328 11.328l584.256 0c40.96 0 74.176-33.216 74.176-74.176L965.696 165.888C965.696 124.928 932.48 91.712 891.584 91.712zM334.72 217.088c18.304 0 33.152-14.784 33.152-33.216L367.872 91.392c0-18.304-14.784-33.088-33.152-33.088S301.504 73.088 301.504 91.392l0 92.544C301.44 202.24 316.352 217.088 334.72 217.088zM458.048 91.712 391.808 91.712l0 76.16 66.24 0L458.048 91.712z" p-id="2047" fill="#ffffff"></path></svg>