<?xml version="1.0" standalone="no"?><!DOCTYPE svg PUBLIC "-//W3C//DTD SVG 1.1//EN" "http://www.w3.org/Graphics/SVG/1.1/DTD/svg11.dtd"><svg t="1573438770763" class="icon" viewBox="0 0 1024 1024" version="1.1" xmlns="http://www.w3.org/2000/svg" p-id="5012" xmlns:xlink="http://www.w3.org/1999/xlink" width="200" height="200"><defs><style type="text/css"></style></defs><path d="M535.272727 285.323636a107.752727 107.752727 0 0 0 106.123637-109.381818 110.545455 110.545455 0 0 0-38.632728-84.48 76.101818 76.101818 0 0 1 3.490909 21.643637 72.610909 72.610909 0 1 1-144.98909 0 75.636364 75.636364 0 0 1 2.094545-17.454546 110.545455 110.545455 0 0 0-34.210909 80.290909 107.752727 107.752727 0 0 0 106.123636 109.381818z m-3.258182-139.636363a71.912727 71.912727 0 0 0 69.818182-72.843637 69.818182 69.818182 0 1 0-141.498182 0 71.912727 71.912727 0 0 0 69.818182 72.843637zM32.349091 799.418182l170.821818 68.189091c-13.730909-28.392727-69.818182-457.541818-69.818182-457.541818zM727.04 1024l10.938182-167.563636-383.069091 39.796363z m116.363636-923.461818l-186.181818 28.16a146.152727 146.152727 0 0 1 17.687273 69.818182 139.636364 139.636364 0 1 1-279.272727 0 149.178182 149.178182 0 0 1 3.258181-30.72L170.123636 202.938182c8.378182 221.556364 107.52 662.109091 107.52 662.109091l714.007273-124.974546c-49.570909-51.2-148.945455-639.301818-148.945454-639.301818z m-537.832727 349.090909l303.709091-44.916364 9.076364 33.745455-304.174546 45.847273z m65.163636 256l-10.938181-38.632727 373.294545-53.527273L744.727273 651.636364z m-23.272727-111.010909L332.8 558.545455 814.545455 492.218182l14.661818 38.167273z m0 0" fill="#ffffff" p-id="5013"></path></svg>