<?xml version="1.0" standalone="no"?><!DOCTYPE svg PUBLIC "-//W3C//DTD SVG 1.1//EN" "http://www.w3.org/Graphics/SVG/1.1/DTD/svg11.dtd"><svg t="1541602698484" class="icon" style="" viewBox="0 0 1024 1024" version="1.1" xmlns="http://www.w3.org/2000/svg" p-id="2178" xmlns:xlink="http://www.w3.org/1999/xlink" width="16" height="16"><defs><style type="text/css"></style></defs><path d="M512 512m-512 0a512 512 0 1 0 1024 0 512 512 0 1 0-1024 0Z" fill="#67C23A" p-id="2179"></path><path d="M932.571429 347.428571c0-53.851429-7.424-105.929143-21.028572-155.446857C817.700571 74.989714 673.645714 0 512 0 229.229714 0 0 229.229714 0 512c0 161.645714 74.989714 305.700571 191.981714 399.542857A585.801143 585.801143 0 0 0 347.428571 932.571429c323.163429 0 585.142857-261.979429 585.142858-585.142858z" fill="#67C23A" p-id="2180"></path><path d="M0 512c0 69.668571 13.970286 136.064 39.186286 196.608A520.630857 520.630857 0 0 0 192 731.428571C479.817143 731.428571 713.142857 498.102857 713.142857 210.285714c0-63.945143-11.574857-125.165714-32.64-181.76A510.518857 510.518857 0 0 0 512 0C229.229714 0 0 229.229714 0 512z" fill="#67C23A" p-id="2181"></path><path d="M28.726857 342.857143c4.589714 6.820571 9.618286 13.385143 15.542857 19.309714 67.84 67.84 198.089143 47.579429 290.925715-45.257143s113.097143-223.085714 45.257142-290.925714c-2.413714-2.413714-5.101714-4.48-7.661714-6.674286-160.694857 45.330286-289.28 167.04-344.064 323.547429z" fill="#67C23A" p-id="2182"></path></svg>