<?xml version="1.0" standalone="no"?><!DOCTYPE svg PUBLIC "-//W3C//DTD SVG 1.1//EN" "http://www.w3.org/Graphics/SVG/1.1/DTD/svg11.dtd"><svg t="1541604567126" class="icon" style="" viewBox="0 0 1024 1024" version="1.1" xmlns="http://www.w3.org/2000/svg" p-id="6746" xmlns:xlink="http://www.w3.org/1999/xlink" width="16" height="16"><defs><style type="text/css"></style></defs><path d="M211.2 656.7c-4.2 0-8.2-2.2-10.4-6.2-3.2-5.8-1.2-13.2 4.5-16.5l86.2-49.7c5.7-3.3 13-1.2 16.2 4.6 3.2 5.8 1.2 13.2-4.5 16.5L217 655.1c-1.8 1.1-3.8 1.6-5.8 1.6zM223.6 710.6c-4.1 0-8.1-2.1-10.4-6-3.4-5.8-1.5-13.2 4.2-16.7l79.9-47.7c5.7-3.4 13.1-1.5 16.5 4.3 3.4 5.8 1.5 13.2-4.2 16.7L229.7 709c-1.9 1.1-4 1.6-6.1 1.6z" fill="#4780FF" p-id="6747"></path><path d="M266.4 250.2v274l242.2-142.1 239.8 142.1v-246c0-15.4-12.5-27.9-27.9-27.9H266.4z" fill="#D4E3FF" p-id="6748"></path><path d="M275.3 848.8c-6.1 0-12-3.6-14.6-9.5L149.8 589.4c-3.3-7.4-0.5-16.1 6.5-20.3l346.3-206c5.1-3 11.4-3 16.5 0.1l339.6 206c7.2 4.4 9.8 13.5 5.9 21l-128 249.9c-4 7.9-13.7 11-21.6 6.9-7.9-4-11-13.7-6.9-21.6l121.3-236.7-318.7-193.2-325.8 193.9L290 826.3c3.6 8.1-0.1 17.5-8.1 21.1-2.2 1-4.4 1.4-6.6 1.4z" fill="#4780FF" p-id="6749"></path><path d="M507.4 710c-8.8 0-16-7.1-16-16V393.9c0-8.8 7.2-16 16-16s16 7.1 16 16V694c0 8.8-7.1 16-16 16z" fill="#4780FF" p-id="6750"></path><path d="M764.7 540.4c-8.8 0-16-7.2-16-16V278.1c0-6.6-5.4-11.9-11.9-11.9H278.1c-6.6 0-11.9 5.4-11.9 11.9v246.3c0 8.8-7.2 16-16 16s-16-7.2-16-16V278.1c0-24.2 19.7-43.9 43.9-43.9h458.7c24.2 0 43.9 19.7 43.9 43.9v246.3c0 8.8-7.2 16-16 16z" fill="#4780FF" p-id="6751"></path><path d="M605.4 255.6c-8.8 0-16-7.1-16-15.9v-56.3h-164v56.3c0 8.8-7.2 15.9-16 15.9s-16-7.1-16-15.9v-58.3c0-16.4 13.4-29.8 29.9-29.8h168.1c16.5 0 29.9 13.4 29.9 29.8v58.3c0.1 8.8-7 15.9-15.9 15.9z" fill="#4780FF" p-id="6752"></path><path d="M861.6 884.5c-46 0-69.3-6.9-91.8-13.7-21.3-6.3-41.4-12.3-82.7-12.3s-61.4 6-82.7 12.3c-22.5 6.7-45.9 13.7-91.8 13.7-46 0-69.3-6.9-91.8-13.7-21.3-6.3-41.4-12.3-82.7-12.3-41.3 0-61.4 6-82.7 12.3-22.5 6.7-45.9 13.7-91.8 13.7-8.9 0-16-7.2-16-16s7.2-16 16-16c41.3 0 61.4-6 82.7-12.3 22.5-6.7 45.9-13.7 91.8-13.7 46 0 69.3 6.9 91.8 13.7 21.3 6.3 41.4 12.3 82.7 12.3 41.3 0 61.4-6 82.7-12.3 22.5-6.7 45.9-13.7 91.8-13.7 46 0 69.3 6.9 91.8 13.7 21.3 6.3 41.4 12.3 82.7 12.3 8.9 0 16 7.2 16 16s-7.1 16-16 16z" fill="#FF6D47" p-id="6753"></path></svg>