<?xml version="1.0" standalone="no"?><!DOCTYPE svg PUBLIC "-//W3C//DTD SVG 1.1//EN" "http://www.w3.org/Graphics/SVG/1.1/DTD/svg11.dtd"><svg t="1541834474454" class="icon" style="" viewBox="0 0 1024 1024" version="1.1" xmlns="http://www.w3.org/2000/svg" p-id="1357" xmlns:xlink="http://www.w3.org/1999/xlink" width="48" height="48"><defs><style type="text/css"></style></defs><path d="M704 789.333333H256l-128-128v-64h768s-128 192-192 192z" fill="#FF3D00" p-id="1358"></path><path d="M865.728 640H128v21.333333l21.333333 21.333334h683.349334a1257.408 1257.408 0 0 0 33.045333-42.666667z" fill="#FFAB91" p-id="1359"></path><path d="M938.666667 768c-64 0-85.333333-42.666667-85.333334-42.666667s-21.333333 42.666667-85.333333 42.666667-85.333333-42.666667-85.333333-42.666667-21.333333 42.666667-85.333334 42.666667-85.333333-42.666667-85.333333-42.666667-21.333333 42.666667-85.333333 42.666667-85.333333-42.666667-85.333334-42.666667-21.333333 42.666667-85.333333 42.666667-85.333333-42.666667-85.333333-42.666667-21.333333 42.666667-85.333334 42.666667v170.666667h853.333334v-170.666667z" fill="#90CAF9" p-id="1360"></path><path d="M938.666667 853.333333c-64 0-85.333333-42.666667-85.333334-42.666666s-21.333333 42.666667-85.333333 42.666666-85.333333-42.666667-85.333333-42.666666-21.333333 42.666667-85.333334 42.666666-85.333333-42.666667-85.333333-42.666666-21.333333 42.666667-85.333333 42.666666-85.333333-42.666667-85.333334-42.666666-21.333333 42.666667-85.333333 42.666666-85.333333-42.666667-85.333333-42.666666-21.333333 42.666667-85.333334 42.666666v85.333334h853.333334v-85.333334z" fill="#2196F3" p-id="1361"></path><path d="M469.333333 64h42.666667v533.333333h-42.666667z" fill="#795548" p-id="1362"></path><path d="M853.333333 533.333333l-341.333333 21.333334V128zM128 490.666667l298.666667 64V106.666667z" fill="#BBDEFB" p-id="1363"></path></svg>