<?xml version="1.0" standalone="no"?><!DOCTYPE svg PUBLIC "-//W3C//DTD SVG 1.1//EN" "http://www.w3.org/Graphics/SVG/1.1/DTD/svg11.dtd"><svg t="1535528926295" class="icon" style="" viewBox="0 0 1024 1024" version="1.1" xmlns="http://www.w3.org/2000/svg" p-id="2212" xmlns:xlink="http://www.w3.org/1999/xlink" width="48" height="48"><defs><style type="text/css"></style></defs><path d="M833.3 666l-40.2 0 0 26.7 40.2 0L833.3 666zM525.4 585.6 445 585.6l0 40.2 80.4 0L525.4 585.6zM418.3 585.6l-80.4 0 0 40.2 80.4 0L418.3 585.6zM311.1 585.6l-80.4 0 0 40.2 80.4 0L311.1 585.6zM204 585.6c0 0-35.3-0.9-53.6 13.4-14.6 11.4-13.4 26.8-13.4 26.8L204 625.8 204 585.6 204 585.6zM860.1 719.5 96.9 719.5c0 0-66.9-29.8-66.9-93.7 0-41.4 66.9-66.9 66.9-66.9l897 0C884.4 587.3 860.1 719.5 860.1 719.5zM284.4 304.5l40.2 0 0 66.9-84.8 0L284.4 304.5zM485.3 331.3l120.5-12.7c22.5-2.6 35.2 16.9 35.2 16.9l26.5 36L485.3 371.5 485.3 331.3zM686 505.3l0-26.8L190.7 478.5l0 26.8L686 505.3zM538.8 438.4 217.4 438.4l0 26.7 321.3 0 0-26.7L538.8 438.4zM471.8 398.2 257.6 398.2 257.6 425l214.2 0L471.8 398.2 471.8 398.2zM230.9 384.9 678 384.9 806.6 532 123.8 532 230.9 384.9z" p-id="2213" fill="#ea9518"></path></svg>